<?xml version="1.0" encoding="UTF-8"?>
<svg id="Calque_1" data-name="Calque 1" xmlns="http://www.w3.org/2000/svg" viewBox="0 0 3998.37 3912.49">
  <defs>
    <style>
      .cls-1 {
        fill: #77a500;
        stroke: #00a200;
      }

      .cls-1, .cls-2 {
        stroke-miterlimit: 10;
      }

      .cls-2 {
        fill: #90b200;
        stroke: #15a00a;
        stroke-width: 2px;
      }

      .cls-3 {
        fill: #fff;
      }

      .cls-4 {
        opacity: .08;
      }

      .cls-5 {
        fill: #5e8d13;
      }

      .cls-6 {
        fill: #e6e4e4;
      }
    </style>
  </defs>
  <circle class="cls-3" cx="1999.47" cy="1956" r="1293.5"/>
  <path class="cls-1" d="M1126.97,2912.5c-13.8-71.25-66.39-384.99,127.59-691.33,154.88-244.61,377.73-343.59,457.41-374.67,0,0,456-187,921,139,0,0,390.2,243.61,384.6,769.8,0,0-160.78,228.69-475.19,375.44-136.63,62.41-258.33,90.29-345.41,103.75-126.78,19.6-326.01,31.18-549.37-32.53-28.55-8.14-98.9-29.34-185.39-69.13-145.46-66.93-256.28-149.75-335.24-220.34Z"/>
  <path class="cls-5" d="M1739.32,3223.67c-30.15-5.98-60.75-13.16-91.73-21.69-56.9-16.54-119.51-38.82-185.39-69.13-15.8-7.27-31.19-14.73-46.17-22.33,0,0-10.07-50.01-71.07-112.01,0,0-58-55,4-157,0,0,19-46-22-74,0,0-30-25-35-62,0,0-9-28-42-29,0,0-42-16-53-86,0,0-23.18-58.46-67.09-58.73,19.88-97.5,57.49-204.5,124.68-310.61,77.44-122.3,171.87-208.2,256.91-267.41,0,0,12.51,67.74,80.51,81.74,0,0,95,26,41,125,0,0-10,13-1,34,0,0-43,72-132,89,0,0-84,19-109,143,0,0,1,87-101,91,0,0-62,70-7,116,0,0,20,20,43,6,0,0,44-7,35,66,0,0-8,39,53,26,0,0,130-26,219,91,0,0,96,157,178,175,0,0,54,113-21,165,0,0-46.29,15.33-50.64,61.16"/>
  <path class="cls-5" d="M2390.47,1857.3s98.65,37.86,156.82,74.28c0,0-7.83,31.42,16.17,54.42,0,0,20.5,54.5-22.5,89.5,0,0-42,60,42,102,0,0-46,112-163,68,0,0-49-16-82,24,0,0-104,76-164-10,0,0-57-120,85-134,0,0,47,15,61-7,0,0,8-11-18-17,0,0-62-47,8-97,0,0,14-11,41-13,0,0,80-33,50-98,0,0-21.98-18.41-10.49-36.21Z"/>
  <path class="cls-5" d="M3017.56,2755.3s4.03-98.71-20.53-207.51c0,0-112.56-18.8-162.56-134.8,0,0-42.5-64.5-64.5-12.5,0,0-16,19,23,66,0,0,39,53,32,122,0,0,2,42,39,68,0,0,29,131-80,102,0,0-37-19-41-85,0,0-8-54-63-121,0,0-27-26-23-101,0,0-18-81-111-40,0,0-74,65-143-7,0,0-107-107-236,3,0,0-217,195-68,350,0,0,55,55,135,54,0,0,164-36,141,57,0,0-15,41,32,112,0,0,16,66-31,109,0,0-19.76,86.08.12,104.54,0,0,148.95-42.73,281.41-124.14,0,0,113.83-65.93,201.65-147.17,0,0,112.01-99.63,158.42-167.43Z"/>
  <ellipse cx="1653.47" cy="2638" rx="98.5" ry="126.5"/>
  <ellipse cx="2281.47" cy="2644" rx="98.5" ry="126.5"/>
  <ellipse class="cls-3" cx="1613.12" cy="2583.25" rx="25.37" ry="17.73" transform="translate(-1432.24 2550.26) rotate(-57.4)"/>
  <ellipse class="cls-3" cx="2247.29" cy="2580.99" rx="25.37" ry="17.73" transform="translate(-1137.88 3083.45) rotate(-57.4)"/>
  <path d="M1764.72,2922.74c23.26,27.39,52.93,50.92,83.33,69.74,57.29,35.47,126.85,53.09,192.05,29.12,50.93-18.72,91.03-57.34,123.05-100.08,4.63-6.18-5.78-12.17-10.36-6.06-28.22,37.66-63.33,72.12-107.05,91.05-31.27,13.53-66.09,17.56-99.66,11.96-55.19-9.22-105.12-40.22-146.07-77.3-9.35-8.47-18.61-17.29-26.79-26.92-5.01-5.89-13.46,2.63-8.49,8.49h0Z"/>
  <path class="cls-1" d="M2598.98,3103.34s-16.53-78.82,60.52-89.45c0,0,57.12-11.96,86.34,78.37,0,0,21.01,49.65,6.35,84.2-4.9,11.54-15.7,19.54-28.13,21.2-2.7.36-5.63.58-8.71.56-19.7-.15-37.36-12.31-44.91-30.51-9.03-21.75-34.33-72.41-71.47-64.38Z"/>
  <path class="cls-1" d="M2680.94,3015.07s5.13-70.26,79.51-56.97c0,0,57.12,3.99,89,104.94,0,0,9.93,43.69-14.85,77.85-7.39,10.19-18.65,16.86-31.1,18.69-14.09,2.07-33.93,2.72-46.69-6.52,0,0,.04-106.26-75.87-137.99Z"/>
  <path class="cls-1" d="M2760.46,2958.1s13.28-50.48,87.67-37.19c0,0,73.94,21.31,66.01,119.91-.96,11.99-5.39,23.53-13.22,32.66-.39.46-.8.92-1.22,1.37-18.25,19.95-44.18,19.76-48.74,19.65.19-14.09-1.49-34.99-11.07-57.72-21.49-51.03-66.63-72.98-79.44-78.68Z"/>
  <path class="cls-6" d="M3291.97,1958c0-714.38-579.12-1293.5-1293.5-1293.5S704.97,1243.62,704.97,1958c0,0,153-1064.5,1329-1110.5,0,0,1026-10,1217,1057,0,0,36.4,206.45,20.7,282.23,0,0,23.07-129.42,21.68-203.82l-1.38-24.9Z"/>
  <path class="cls-4" d="M2599.47,3103c72.23-37.53,161.11-92.43,252-172,70.29-61.54,125.13-123.23,167.02-177.2,1.69-82.85-6.91-213.67-64.48-359.96-109.55-278.38-320.12-409.84-320.12-409.84-465-326-921-139-921-139,38.44,6.34,645.35,116.56,853.58,648,102.65,261.98,59.79,502.24,33,610Z"/>
  <path class="cls-4" d="M2599.09,3103.79c17.91-9.38,36.41-19.61,55.38-30.78,20.93-12.33,40.59-24.73,59-37,3.33,3.58,6.7,7.57,10,12,11.83,15.89,18.54,31.83,22.49,44.71,7.3,20.38,9.68,37.63,10.51,49.29,1.12,15.79,1.64,25-4,35-.99,1.75-10.33,17.72-28.29,21.11-.63.12-4.41.59-8.71.56-19.7-.15-37.36-12.31-44.91-30.51-9.03-21.75-34.33-72.41-71.47-64.38Z"/>
  <path class="cls-4" d="M2713.47,3036c12.06-7.77,24.42-16.09,37-25,15.62-11.06,30.28-22.12,44-33,8.98,6.89,21.12,17.86,32,34,13.95,20.7,19.55,40.61,22,53,1.96,8.65,4.52,24.5,1,42-1.98,9.83-5.33,17.5-6,19-1.39,3.12-4.29,9.66-8.75,15.33-10.72,13.64-26.63,18.03-31.1,18.69-14.09,2.07-33.93,2.72-46.69-6.52-.1-14.11-1.84-34.28-9.47-57.1-9.48-28.34-23.93-48.5-33.99-60.41Z"/>
  <path class="cls-4" d="M2794.47,2978c9.87-7.66,19.88-15.66,30-24,11.82-9.74,23.15-19.42,34-29,7.75,4.16,19.61,11.73,30.65,24.64,2.83,3.31,13.44,16.13,20.35,36.36,1.02,2.98,9.07,27.38,4.79,55.26-3.09,20.1-10.69,29.71-13.22,32.66-.39.46-.8.92-1.22,1.37-18.25,19.95-44.18,19.76-48.74,19.65.18-12.85-1.21-34.06-11.07-57.72-13.27-31.88-34.66-50.81-45.54-59.22Z"/>
  <path class="cls-2" d="M1175.8,3098.11s182.21,88.53,206.87-66.6c0,0-13.36-123.94-49.97-174.74,0,0-19.8-60.93-10.11-116.28,0,0-1-23.69-23.22-26.33,0,0-38.24-4.89-46.54,67.96,0,0-8.3,72.84,1.84,89.65l-21.83-8.83-57.03,235.17Z"/>
  <path class="cls-2" d="M1101.77,2888.54c-3.67-7.23-5.01-18.23,8.24-30.56,4.93-4.6,11.06-7.72,17.66-9.12,19.67-4.16,69.19-12.12,101.4,4.57,5.51,2.85,9.56,7.95,11.33,13.89,1.56,5.22,2.86,12.12,2.01,19.12-1.29,10.6-9.63,18.98-20.13,20.88-22.11,4-74.5,10.82-107.8-6.56-5.33-2.78-9.97-6.86-12.69-12.22Z"/>
  <path class="cls-2" d="M1105.61,2968.12c-2.24-.69-6.08-2.01-9.77-5.28-8.83-7.81-9.48-20.27-9.42-25.77,0,0-4.76-29.46,23.4-39.23l113.22,6.65c3.07.18,6.08.81,8.93,1.87.56.21,4.32,1.65,7.95,4.45,7.01,5.41,9.93,13.11,11.24,16.71,2.56,7.01,7.38,20.17.94,30.12-4.15,6.41-10.98,8.42-19.68,10.98-8.91,2.63-14.89,2.43-34.99,2.78-9.71.17-17.79.38-23.5.55,0,0-42.34,4.18-68.31-3.82Z"/>
  <path class="cls-2" d="M1085.41,3009.53c.04-.57.11-1.65.24-3.91.83-14.39.78-17.2,1.06-19.51.6-5.05,3.27-12.17,12.89-20.57l140.79.53c3.86,1.67,10.63,5.24,16.32,12.41,1.98,2.49,6.03,7.72,7.68,15.76,1.4,6.82.36,12.22.08,13.53-.15.7-.31,1.38-.5,2.04-2.43,8.68-9.05,15.57-17.35,19.09l-5.88,2.49c-13.4,5.68-27.72,8.84-42.27,9.34l-80.05,2.71c-18.85.64-34.18-15.08-33.02-33.91Z"/>
  <path class="cls-2" d="M1106.52,3041.58s-18.68,34.38,20.73,48.9c0,0,50.03,20.91,115.15-5.56,2.11-.86,4.05-2.07,5.77-3.56,5.95-5.18,17.67-18.01,9.07-32.85,0,0-10.48-16.65-16.5-17.12l-134.23,10.19Z"/>
</svg>