<?xml version="1.0" encoding="UTF-8"?>
<svg id="Calque_1" data-name="Calque 1" xmlns="http://www.w3.org/2000/svg" viewBox="0 0 3998.37 3912.49">
  <defs>
    <style>
      .cls-1 {
        fill: #600d0d;
      }

      .cls-1, .cls-2 {
        stroke: #600d0d;
      }

      .cls-1, .cls-2, .cls-3, .cls-4 {
        stroke-miterlimit: 10;
      }

      .cls-5 {
        fill: #a81313;
      }

      .cls-2 {
        fill: none;
      }

      .cls-2, .cls-3 {
        stroke-width: .5px;
      }

      .cls-3 {
        stroke: #fff;
      }

      .cls-3, .cls-6 {
        fill: #fff;
      }

      .cls-4 {
        fill: #bc2b13;
        stroke: #560202;
      }

      .cls-7 {
        opacity: .08;
      }

      .cls-8 {
        fill: #e6e4e4;
      }
    </style>
  </defs>
  <circle class="cls-6" cx="1976.29" cy="1899.81" r="1293.5"/>
  <path class="cls-4" d="M1103.79,2856.31c-13.8-71.25-66.39-384.99,127.59-691.33,154.88-244.61,377.73-343.59,457.41-374.67,0,0,456-187,921,139,0,0,390.2,243.61,384.6,769.8,0,0-160.78,228.69-475.19,375.44-136.63,62.41-258.33,90.29-345.41,103.75-126.78,19.6-326.01,31.18-549.37-32.53-28.55-8.14-98.9-29.34-185.39-69.13-145.46-66.93-256.28-149.75-335.24-220.34Z"/>
  <path class="cls-5" d="M1716.14,3167.47c-30.15-5.98-60.75-13.16-91.73-21.69-56.9-16.54-119.51-38.82-185.39-69.13-15.8-7.27-31.19-14.73-46.17-22.33,0,0-10.07-50.01-71.07-112.01,0,0-58-55,4-157,0,0,19-46-22-74,0,0-30-25-35-62,0,0-9-28-42-29,0,0-42-16-53-86,0,0-23.18-58.46-67.09-58.73,19.88-97.5,57.49-204.5,124.68-310.61,77.44-122.3,171.87-208.2,256.91-267.41,0,0,12.51,67.74,80.51,81.74,0,0,95,26,41,125,0,0-10,13-1,34,0,0-43,72-132,89,0,0-84,19-109,143,0,0,1,87-101,91,0,0-62,70-7,116,0,0,20,20,43,6,0,0,44-7,35,66,0,0-8,39,53,26,0,0,130-26,219,91,0,0,96,157,178,175,0,0,54,113-21,165,0,0-46.29,15.33-50.64,61.16"/>
  <path class="cls-5" d="M2367.3,1801.1s98.65,37.86,156.82,74.28c0,0-7.83,31.42,16.17,54.42,0,0,20.5,54.5-22.5,89.5,0,0-42,60,42,102,0,0-46,112-163,68,0,0-49-16-82,24,0,0-104,76-164-10,0,0-57-120,85-134,0,0,47,15,61-7,0,0,8-11-18-17,0,0-62-47,8-97,0,0,14-11,41-13,0,0,80-33,50-98,0,0-21.98-18.41-10.49-36.21Z"/>
  <path class="cls-5" d="M2994.38,2699.11s4.03-98.71-20.53-207.51c0,0-112.56-18.8-162.56-134.8,0,0-42.5-64.5-64.5-12.5,0,0-16,19,23,66,0,0,39,53,32,122,0,0,2,42,39,68,0,0,29,131-80,102,0,0-37-19-41-85,0,0-8-54-63-121,0,0-27-26-23-101,0,0-18-81-111-40,0,0-74,65-143-7,0,0-107-107-236,3,0,0-217,195-68,350,0,0,55,55,135,54,0,0,164-36,141,57,0,0-15,41,32,112,0,0,16,66-31,109,0,0-19.76,86.08.12,104.54,0,0,148.95-42.73,281.41-124.14,0,0,113.83-65.93,201.65-147.17,0,0,112.01-99.63,158.42-167.43Z"/>
  <path class="cls-4" d="M1438.39,3025.65s-5.13-70.26-79.51-56.97c0,0-57.12,3.99-89,104.94,0,0-10.61,46.69,17.48,81.27,6.39,7.86,15.46,13.09,25.44,14.79,14.14,2.41,36.01,3.89,49.72-6.04,0,0-.04-106.26,75.87-137.99Z"/>
  <path class="cls-4" d="M1358.87,2968.68s-13.28-50.48-87.67-37.19c0,0-77.75,22.4-65.24,127.59.14,1.16.36,2.31.66,3.44,0,0,2.81,11.99,13.01,22.91,8.72,9.35,26.42,18.01,49.02,19.48-.26-14.03,1.31-34.87,10.78-57.55,21.37-51.19,66.8-73.09,79.44-78.68Z"/>
  <path class="cls-4" d="M2575.8,3047.15s-16.53-78.82,60.52-89.45c0,0,57.12-11.96,86.34,78.37,0,0,21.01,49.65,6.35,84.2-4.9,11.54-15.7,19.54-28.13,21.2-2.7.36-5.63.58-8.71.56-19.7-.15-37.36-12.31-44.91-30.51-9.03-21.75-34.33-72.41-71.47-64.38Z"/>
  <path class="cls-4" d="M2657.76,2958.88s5.13-70.26,79.51-56.97c0,0,57.12,3.99,89,104.94,0,0,9.93,43.69-14.85,77.85-7.39,10.19-18.65,16.86-31.1,18.69-14.09,2.07-33.93,2.72-46.69-6.52,0,0,.04-106.26-75.87-137.99Z"/>
  <path class="cls-4" d="M2737.28,2901.91s13.28-50.48,87.67-37.19c0,0,73.94,21.31,66.01,119.91-.96,11.99-5.39,23.53-13.22,32.66-.39.46-.8.92-1.22,1.37-18.25,19.95-44.18,19.76-48.74,19.65.19-14.09-1.49-34.99-11.07-57.72-21.49-51.03-66.63-72.98-79.44-78.68Z"/>
  <path class="cls-8" d="M3268.79,1901.81c0-714.38-579.12-1293.5-1293.5-1293.5S681.79,1187.43,681.79,1901.81c0,0,153-1064.5,1329-1110.5,0,0,1026-10,1217,1057,0,0,36.4,206.45,20.7,282.23,0,0,23.07-129.42,21.68-203.82l-1.38-24.9Z"/>
  <path class="cls-7" d="M2576.29,3046.81c72.23-37.53,161.11-92.43,252-172,70.29-61.54,125.13-123.23,167.02-177.2,1.69-82.85-6.91-213.67-64.48-359.96-109.55-278.38-320.12-409.84-320.12-409.84-465-326-921-139-921-139,38.44,6.34,645.35,116.56,853.58,648,102.65,261.98,59.79,502.24,33,610Z"/>
  <path class="cls-7" d="M2575.91,3049.59c17.91-9.38,36.41-19.61,55.38-30.78,20.93-12.33,40.59-24.73,59-37,3.33,3.58,6.7,7.57,10,12,11.83,15.89,18.54,31.83,22.49,44.71,7.3,20.38,9.68,37.63,10.51,49.29,1.12,15.79,1.64,25-4,35-.99,1.75-10.33,17.72-28.29,21.11-.63.12-4.41.59-8.71.56-19.7-.15-37.36-12.31-44.91-30.51-9.03-21.75-34.33-72.41-71.47-64.38Z"/>
  <path class="cls-7" d="M2690.29,2981.81c12.06-7.77,24.42-16.09,37-25,15.62-11.06,30.28-22.12,44-33,8.98,6.89,21.12,17.86,32,34,13.95,20.7,19.55,40.61,22,53,1.96,8.65,4.52,24.5,1,42-1.98,9.83-5.33,17.5-6,19-1.39,3.12-4.29,9.66-8.75,15.33-10.72,13.64-26.63,18.03-31.1,18.69-14.09,2.07-33.93,2.72-46.69-6.52-.1-14.11-1.84-34.28-9.47-57.1-9.48-28.34-23.93-48.5-33.99-60.41Z"/>
  <path class="cls-7" d="M2771.29,2923.81c9.87-7.66,19.88-15.66,30-24,11.82-9.74,23.15-19.42,34-29,7.75,4.16,19.61,11.73,30.65,24.64,2.83,3.31,13.44,16.13,20.35,36.36,1.02,2.98,9.07,27.38,4.79,55.26-3.09,20.1-10.69,29.71-13.22,32.66-.39.46-.8.92-1.22,1.37-18.25,19.95-44.18,19.76-48.74,19.65.18-12.85-1.21-34.06-11.07-57.72-13.27-31.88-34.66-50.81-45.54-59.22Z"/>
  <path class="cls-4" d="M1521.35,3110.92s16.53-78.82-60.52-89.45c0,0-57.12-11.96-86.34,78.37,0,0-21.9,51.77-5.37,86.36,4.78,10.01,14.26,16.94,25.21,18.74,3.21.53,6.81.88,10.66.85,19.7-.15,37.36-12.31,44.91-30.51,9.03-21.75,34.33-72.41,71.47-64.38Z"/>
  <path class="cls-3" d="M1605.72,2546.01c-27.98,19.74-46.26,52.31-46.26,89.15,0,5.65-.66,18.1,4.87,32.31,0,0,100,11.85,151.62,65.87,36.43-17.65,61.56-54.98,61.56-98.18,0-8.75-1.03-17.27-2.98-25.42"/>
  <path class="cls-2" d="M1737.79,2749.67l-16.85-12.31c-49.19-40.62-107.32-59.27-135.68-66.47-9.78-2.48-19.89-3.09-29.93-2.02-2.63.28-5.24.48-7.39.48"/>
  <path class="cls-1" d="M1567.94,2530.6s178.16,74.12,223.29,82.7h.08c8.96.72,16.99-5.54,18.46-14.41l4.69-28.13-246.52-40.16Z"/>
  <path d="M1620.97,2555.79l-.41,49.08c-.09,10.97,1.91,21.92,6.46,31.9,6.52,14.27,19.23,30.47,43.58,32.28,22.36,1.66,42.9-10.81,52.13-31.24,3.08-6.81,5.27-14.68,5.27-23.28l-.45-19.32-106.58-39.41Z"/>
  <path class="cls-3" d="M2356.69,2548.47c27.98,19.74,46.26,52.31,46.26,89.15,0,5.65.66,18.1-4.87,32.31,0,0-100,11.85-151.62,65.87-36.43-17.65-61.56-54.98-61.56-98.18,0-8.75,1.03-17.27,2.98-25.42"/>
  <path class="cls-2" d="M2224.62,2752.13l16.85-12.31c49.19-40.62,107.32-59.27,135.68-66.47,9.78-2.48,19.89-3.09,29.93-2.02,2.63.28,5.24.48,7.39.48"/>
  <path class="cls-1" d="M2394.47,2533.06s-178.16,74.12-223.29,82.7h-.08c-8.96.72-16.99-5.54-18.46-14.41l-4.69-28.13,246.52-40.16Z"/>
  <path d="M2341.44,2558.25l.41,49.08c.09,10.97-1.91,21.92-6.46,31.9-6.52,14.27-19.23,30.47-43.58,32.28-22.36,1.66-42.9-10.81-52.13-31.24-3.08-6.81-5.27-14.68-5.27-23.28l.45-19.32,106.58-39.41Z"/>
  <path d="M2120.61,2909.05c-12.5-6.16-26.22-10.37-39.68-13.75-30.9-7.77-63.29-10.16-94.92-5.99-22.49,2.96-44.12,9.22-64.82,18.46-7.04,3.14-.94,13.49,6.06,10.36,55.28-24.67,119.52-24.32,175.94-3.42,1.72.64,3.44,1.3,5.14,1.98.74.3,1.48.6,2.21.91-.34-.14-.2-.1.79.34,1.08.48,2.17.95,3.23,1.48,6.9,3.4,12.99-6.95,6.06-10.36h0Z"/>
</svg>